<?xml version="1.0" encoding="utf-8"?>
<!-- Generator: Adobe Illustrator 23.0.0, SVG Export Plug-In . SVG Version: 6.00 Build 0)  -->
<svg version="1.2" baseProfile="tiny" id="Layer_1" xmlns="http://www.w3.org/2000/svg" xmlns:xlink="http://www.w3.org/1999/xlink"
	 x="0px" y="0px" viewBox="0 0 64 64" xml:space="preserve">
	<g>
		<path fill="#E85A50" d="M17.27,8c-3.0584,0-5.8369,2.1573-6.2341,5.1872c-0.0033,0.0251-0.0064,0.0503-0.0094,0.0754
			c-0.1241,1.047,1.0772,1.7423,1.9648,1.1721l6.3394-4.0728C20.4084,9.6694,19.9176,8,18.6362,8L17.27,8z"/>
		<path fill="#D8C3A4" d="M28.1086,52.2777c-0.674,0.433-0.7993,1.381-0.2444,1.9587c0.8589,0.8942,1.9741,1.5206,3.2628,1.702
			c3.7044,0.5215,6.878-2.3382,6.878-5.9384v-1.7355c0-1.0127-1.1214-1.6244-1.9739-1.0766L28.1086,52.2777z"/>
		<path fill="#E56B5E" d="M16.9873,20h1.7691c0.2457,0,0.4862-0.0706,0.6929-0.2034l14.6937-9.44C35.2184,9.6658,34.7286,8,33.4501,8
			H23.3832c-0.2457,0-0.4862,0.0706-0.6929,0.2034L12.0706,15.026c-0.5273,0.3388-0.7571,1.0207-0.4841,1.5846
			C12.5574,18.6157,14.6084,20,16.9873,20z"/>
		<path fill="#E37D6C" d="M47.0126,8h-8.8251c-0.2457,0-0.4862,0.0706-0.6929,0.2034l-14.6937,9.44
			C21.7256,18.3342,22.2153,20,23.4938,20h0.9999c0.8291,0,1.5013,0.6716,1.5013,1.5v1.2576c0,1.0127,1.1214,1.6244,1.9739,1.0766
			l20.7859-13.3539c0.9463-0.608,0.7104-2.0715-0.3856-2.3257C47.9334,8.0535,47.4794,8,47.0126,8z"/>
		<path fill="#E08E7A" d="M38.005,21.5c0-0.8284,0.6721-1.5,1.5013-1.5h7.2354c3.0226,0,5.9772-2.4313,6.2503-5.439
			c0.1614-1.7774-0.4551-3.4114-1.547-4.6043c-0.4081-0.4459-1.0946-0.5015-1.6033-0.1747L26.5832,24.7245
			c-0.3666,0.2355-0.5882,0.6411-0.5882,1.0766v6.4676c0,1.0127,1.1214,1.6244,1.9739,1.0766l9.448-6.0699
			c0.3666-0.2355,0.5882-0.6411,0.5882-1.0766V21.5z"/>
		<path fill="#DDA088" d="M25.9949,35.3141v6.4596c0,1.0154,1.1243,1.6286,1.979,1.0794l9.4413-6.0656
			c0.3676-0.2361,0.5897-0.6428,0.5897-1.0794v-6.4596c0-1.0154-1.1243-1.6286-1.979-1.0794l-9.4413,6.0656
			C26.2171,34.4708,25.9949,34.8774,25.9949,35.3141z"/>
		<path fill="#DBB196" d="M36.0292,37.678l-9.4473,6.0694c-0.3659,0.2351-0.587,0.6399-0.587,1.0745v4.7167
			c0,0.683,0.1048,1.3566,0.3003,1.9966c0.2448,0.8014,1.2075,1.1318,1.9129,0.6786l9.2082-5.9158
			c0.367-0.2358,0.5888-0.6418,0.5888-1.0777v-6.4646C38.005,37.742,36.8826,37.1297,36.0292,37.678z"/>
	</g>
</svg>
